<?xml version="1.0" encoding="UTF-8"?>
<svg xmlns="http://www.w3.org/2000/svg" xmlns:xlink="http://www.w3.org/1999/xlink" viewBox="0 0 75 75" width="75px" height="75px">
<g id="surface122368600">
<path style=" stroke:none;fill-rule:nonzero;fill:rgb(100%,100%,100%);fill-opacity:1;" d="M 35.261719 12 C 34.242188 12 33.375 12.734375 33.199219 13.738281 L 32.480469 17.902344 C 30.59375 18.386719 28.816406 19.125 27.183594 20.09375 L 23.734375 17.65625 C 23.101562 17.203125 21.945312 17.015625 21.050781 17.886719 L 17.886719 21.050781 C 17.164062 21.769531 17.066406 22.90625 17.65625 23.738281 L 20.09375 27.1875 C 19.125 28.820312 18.382812 30.597656 17.902344 32.484375 L 13.734375 33.203125 C 12.730469 33.375 12 34.246094 12 35.261719 L 12 39.738281 C 12 40.757812 12.734375 41.625 13.738281 41.800781 L 17.902344 42.519531 C 18.386719 44.40625 19.125 46.183594 20.09375 47.816406 L 17.65625 51.265625 C 17.070312 52.097656 17.164062 53.230469 17.886719 53.949219 L 21.054688 57.113281 C 21.8125 57.859375 22.933594 57.917969 23.738281 57.347656 L 27.1875 54.90625 C 28.820312 55.875 30.597656 56.617188 32.484375 57.101562 L 33.203125 61.265625 C 33.375 62.269531 34.246094 63 35.261719 63 L 39.738281 63 C 40.757812 63 41.625 62.269531 41.800781 61.261719 L 42.519531 57.097656 C 44.40625 56.613281 46.183594 55.871094 47.816406 54.902344 L 51.265625 57.34375 C 52.035156 57.894531 53.144531 57.886719 53.949219 57.113281 L 57.113281 53.949219 C 57.835938 53.230469 57.933594 52.09375 57.347656 51.261719 L 54.90625 47.808594 C 55.875 46.175781 56.617188 44.402344 57.101562 42.515625 L 61.265625 41.796875 C 62.269531 41.625 63 40.753906 63 39.738281 L 63 35.261719 C 63 34.246094 62.265625 33.375 61.261719 33.199219 L 57.097656 32.480469 C 56.613281 30.59375 55.875 28.816406 54.90625 27.183594 L 57.34375 23.734375 C 57.929688 22.902344 57.835938 21.769531 57.113281 21.050781 L 53.949219 17.886719 C 53.289062 17.234375 52.1875 17.035156 51.265625 17.652344 L 47.8125 20.09375 C 46.179688 19.125 44.402344 18.382812 42.515625 17.898438 L 41.796875 13.734375 C 41.625 12.730469 40.753906 12 39.738281 12 Z M 35.261719 13.5 L 39.738281 13.5 C 40.027344 13.5 40.273438 13.703125 40.320312 13.988281 L 41.203125 19.113281 C 43.589844 19.625 45.8125 20.5625 47.882812 21.882812 L 52.132812 18.882812 C 52.34375 18.734375 52.660156 18.722656 52.886719 18.945312 L 56.054688 22.109375 C 56.257812 22.3125 56.285156 22.632812 56.117188 22.867188 L 53.117188 27.113281 C 54.425781 29.085938 55.320312 31.335938 55.886719 33.796875 L 61.011719 34.679688 C 61.296875 34.726562 61.5 34.972656 61.5 35.261719 L 61.5 39.738281 C 61.5 40.027344 61.292969 40.273438 61.011719 40.320312 L 55.886719 41.203125 C 55.410156 43.542969 54.457031 45.757812 53.117188 47.882812 L 56.117188 52.132812 C 56.285156 52.367188 56.257812 52.683594 56.054688 52.886719 L 52.890625 56.054688 C 52.695312 56.246094 52.390625 56.296875 52.132812 56.117188 L 47.886719 53.117188 C 45.867188 54.433594 43.632812 55.351562 41.203125 55.886719 L 40.320312 61.011719 C 40.273438 61.296875 40.027344 61.5 39.738281 61.5 L 35.261719 61.5 C 34.972656 61.5 34.726562 61.296875 34.679688 61.011719 L 33.796875 55.886719 C 31.390625 55.375 29.167969 54.4375 27.117188 53.117188 L 22.871094 56.117188 C 22.660156 56.273438 22.324219 56.265625 22.113281 56.054688 L 18.945312 52.886719 C 18.742188 52.683594 18.714844 52.367188 18.882812 52.132812 L 21.882812 47.882812 C 20.515625 45.71875 19.574219 43.492188 19.113281 41.203125 L 13.988281 40.320312 C 13.703125 40.273438 13.5 40.027344 13.5 39.738281 L 13.5 35.261719 C 13.5 34.972656 13.703125 34.726562 13.988281 34.679688 L 19.113281 33.796875 C 19.703125 31.246094 20.613281 29.003906 21.882812 27.117188 L 18.882812 22.867188 C 18.714844 22.632812 18.742188 22.316406 18.945312 22.113281 L 22.109375 18.945312 C 22.308594 18.730469 22.679688 18.734375 22.867188 18.882812 L 27.113281 21.882812 C 29.179688 20.566406 31.402344 19.621094 33.796875 19.113281 L 34.679688 13.988281 C 34.726562 13.703125 34.972656 13.5 35.261719 13.5 Z M 37.5 27.066406 C 31.738281 27.066406 27.066406 31.738281 27.066406 37.5 C 27.066406 43.261719 31.738281 47.933594 37.5 47.933594 C 43.261719 47.933594 47.933594 43.261719 47.933594 37.5 C 47.933594 31.738281 43.261719 27.066406 37.5 27.066406 Z M 37.5 28.5 C 42.472656 28.5 46.5 32.527344 46.5 37.5 C 46.5 42.472656 42.472656 46.5 37.5 46.5 C 32.527344 46.5 28.5 42.472656 28.5 37.5 C 28.5 32.527344 32.527344 28.5 37.5 28.5 Z M 37.5 28.5 "/>
</g>
</svg>
